<svg id="Calque_2" data-name="Calque 2" xmlns="http://www.w3.org/2000/svg" viewBox="0 0 514.95 873.26">
  <title>dessin_maks</title>
  <polyline id="Dessin_maks" points="32.02 840.48 195.21 872.75 438.77 840.48 497.23 845.35 469.83 852.05 401.02 792.98 402.85 640.14 438.16 542.72 463.13 532.37 463.13 489.74 482 412.77 459.48 403.28 456.43 435.55 437.56 427.02 320.03 484.26 365.7 580.47 397.37 578.64 445.47 495.83 460.08 392.32 423.55 346.65 304.81 354.56 307.25 369.18 410.15 353.35 429.03 367.35 419.29 401.45 343.78 391.1 306.03 408.76 341.35 435.55 376.66 438.59 404.67 412.77 365.09 399.62 310.74 408.87 349.98 417.03 358.24 417.75 354.52 402.47 372.9 403.19 371.97 416.61 360.1 417.85 400.68 412.77 409.86 403.09 421.37 385.37 457.26 393.43 462.55 386.29 471.52 386.75 477.5 372.95 488.78 368.12 483.83 346.65 497.23 319.34 501.5 258.84 514.42 229.61 491.99 158.23 500.82 145.32 424.01 74.62 410.41 74.62 373.71 43.35 353.31 43.35 343.12 18.2 199.68 0.53 173.17 25 152.1 32.47 127.62 29.75 124.22 39.95 95.67 54.23 82.76 75.98 70.52 80.06 63.73 104.53 45.37 127.64 45.37 143.28 22.94 150.08 16.14 188.82 5.26 196.3 0.51 291.47 16.14 330.9 21.58 412.77 45.37 412.77 65.76 536.87 58.84 542.31 46.05 511.72 50.81 487.25 27.7 445.78 52.17 407.71 70.52 570.86 94.31 626.61 192.2 728.57 251.34 745.57 314.56 736.05 396.82 645.64 286.01 736.73 277.86 727.21 298.25 686.43 283.97 657.2 213.96 643.6 341.08 608.25 293.49 593.29 260.86 601.45 229.59 594.65 171.81 606.89 196.28 625.92 255.66 636.8 298.25 632.04 339.4 610.73 271.18 608.18 260.38 612.3 248.48 608.42 176.87 608.78 246.3 606.72 256.86 601.99 268.03 592.64 266.57 561.32 296.03 545.66 300.7 550.07 296.31 557.04 301.48 556.78 311.29 549.29 300.19 530.18 287.01 531.21 275.91 541.8 274.1 526.57 262.22 516.75 252.41 519.85 244.14 527.08 238.98 539.74 243.11 550.33 248.79 554.97 262.22 557.3 274.62 544.38 265.58 559.11 244.92 557.04 231.23 547.49 224.51 542.58 220.64 542.58 223.74 551.62 220.9 553.94 206.95 544.9 204.63 534.31 224.25 521.92 233.04 520.11 235.1 463.55 235.1 429.2 235.36 401.56 245.43 385.04 250.34 386.33 254.21 399.5 246.72 405.7 241.3 408.8 223.74 422.74 170.54 432.3 139.03 431.78 113.72 409.31 139.03 416.29 174.41 416.54 212.38 411.38 218.31 410.09 184.22 400.01 168.73 400.27 175.44 406.73 174.41 412.77 167.18 415 158.91 412.77 158.14 404.66 165.37 401.56 167.95 407.25 172.86 407.5 167.31 399.96 145.79 400.44 118.7 407.38 120.5 401.13 178.01 393.36 213.02 406 180.24 392.24 133.84 395.86 110.5 402.94 102.31 402.11 89.81 368.63 117.6 355.1 151.31 352.82 200.97 361.48 222.5 371.96 231.04 356.47 215.09 351 187.76 341.89 147.21 339.61 120.33 342.35 103.93 345.99 58.84 383.28 79.78 330.5 102.11 270.82 139.01 264.9 169.53 272.64 177.28 270.82 169.53 255.33 209.17 249.41 236.05 240.29 246.53 240.29 262.01 216.15 286.16 227.54 320.33 229.36 329.44 237.1 393.22 241.21 404.61 252.14 420.1 254.42 462.55 386.29" fill="none" stroke="#000" stroke-miterlimit="10"/>
</svg>
