<svg id="Calque_2" data-name="Calque 2" xmlns="http://www.w3.org/2000/svg" viewBox="0 0 685.35 878.11">
  <title>maksym</title>
  <path id="cheveux" d="M796.33,510.5s9.12,21.11-3.42,26.24-34.79,4.56-37.07,0-3.42-3.42,0-70.72c0,0-6.27-20-14.26-34.21S737,318.32,746.15,317.18s13.68-38.78,13.68-38.78,6.28-8,21.67-8.55c0,0-2.28-15.4,4.57-21.1s26.8-29.66,24.52-44.49c0,0,1.14-3.42,9.12,0s13.12-23.95,21.1-26.8,21.1-9.12,21.1-9.12a75.79,75.79,0,0,0,5.71-10.84c1.71-4.56,26.8,2.85,33.07,0s23.95-9.12,33.08-30.22c0,0,128.88-.57,146.56,18.24,0,0,7.41,14.83,6.84,20.53s17.11,3.43,17.11,3.43,9.7-2.86,42.2,33.07c0,0,12-6.84,29.66,8.56s58.17,43.34,60.45,58.17-6.85,14.25-6.85,14.25-4,7.42,2.86,14.26,19.39,41.06,18.25,46.76,4.56,16-13.12,49.05l-4.56,65.58s-5.14,15.4-13.12,16.54l6.84,18.25s-.57,4-12.54,6.84l-5.14,13.69s-6.84-4.57-13.68-1.14c0,0-20.53-110.64-37.64-131.74a16.13,16.13,0,0,0-13.69,0s-2.28-13.12-18.82-13.69-52.46-1.14-56.45-2.85-11.41-9.12-11.41-9.12-22.24-1.14-29.08,1.71-26.81-12-26.81-12-7.41,1.14-16.54,20c0,0-8.55,1.71-13.11.57,0,0,2.85,4.57-8,6.85s-56.86,10.25-56.86,10.25l8.53,17.06S864.48,386.52,856,394c0,0-32-8.53-43.72,86.36C812.23,480.35,811.35,500.14,796.33,510.5Z" transform="translate(-567.07 -125.77)" fill="none" stroke="#000" stroke-miterlimit="10" stroke-width="3"/>
  <path id="visage" d="M792.91,536.74v14s-6.27-21.45-21.19-7,7.33,46.44,10.59,49.64,6.47,30.92,3.27,36.25-11.73,44.79-1.07,40.52c0,0,8.53,7.47,19.19-4.26s-10.79-115.16-10.79-115.16-2,102.36,18.26,151.41S822.9,748,928.45,854.6c0,0,19.2,22.39,49,21.33,0,0,35.19,5.4,68.24,0,0,0,36.25-7.5,92.76-106.66,0,0,16-17.06,24.53-36.25s13.86-62.91,13.86-62.91,11.73,3.2,20.26-8.53,2.13-51.18,4.26-61.84,10.66-42.65,10.66-42.65,9.6-8.78,0-20.38-13.86,0-13.86,0l-21.32,133.4s24.48-127.84,18.64-156.78" transform="translate(-567.07 -125.77)" fill="none" stroke="#000" stroke-miterlimit="10" stroke-width="3"/>
  <path id="bouche" d="M993.15,877.57s40.86-34.7,45.13-48.56-12.07-48-22.56-46.91-34-11.73-67-9.6,30.92-10.66,30.92-10.66,67.18,10.66,100.23-27.72c0,0-47.87-21.33-70.31-8.53,0,0-3.26,8.88-40.58-4.09,0,0-23.46-2.31-59.71,14.75,0,0,21.33,20.26,70.37,25.59h0l100.23-27.72-69.31,2.13s-2.13,5.33-29.85,0H909.26" transform="translate(-567.07 -125.77)" fill="none" stroke="#000" stroke-miterlimit="10" stroke-width="3"/>
  <path id="nez_oeil" d="M994.56,728.15s23.46-4.7,9.6-42c0,0,26.65-16,30.92-12.8s5.33,6.4,0,10.66,13.86,2.36,13.86-11.08a16.39,16.39,0,0,0-2-7.89c-2.92-4.92-9-8.55-14.41-8.45-15.13.28-28.37,29.55-28.37,29.56h0a21.56,21.56,0,0,1-11-41.59,17.71,17.71,0,0,1,11.75,2.77,17.37,17.37,0,0,1,6,7.41c5.27,11.28,1.74,28.6-6.69,31.41a9.29,9.29,0,0,1-5.65-.07,68.23,68.23,0,0,1-7.8-1.13A72.41,72.41,0,0,1,960,670.14a11.43,11.43,0,0,0,0,11.73s-17.68-3.2-17.68-20.26a51.32,51.32,0,0,1,9.83-8.84,52,52,0,0,1,20-8.22s-6.4-143,13.86-131.19c0,0,6.78-2.09,7.12,16L960,551.79s-47.54,12.79-82.73,6.4c0,0-20.25-7.59-26.65-18.19,0,0,36.25-26.6,99.16-4.2,0,0,8.19,5.44-40.52,9.59,0,0,11-10.53.51-18.26l-13.49-.2S892.33,539.86,899,543l10.31,2.39s-29.14-.29-30.19-.76c-9.33-4.15-18.62-4.08-25.28-6.61" transform="translate(-567.07 -125.77)" fill="none" stroke="#000" stroke-miterlimit="10" stroke-width="3"/>
  <path id="sourcil_gauche" d="M949.78,535.8S939.53,523.47,917.09,521s-52,3.37-58.72,6.86a34.39,34.39,0,0,1-13.6,3.6S833.61,522,827.33,496c0,0,17.67-12.91,26.39-14.07s24.07-1.4,24.07-1.4,29.07-1.62,45.7,6.28c0,0,29,7.79,33.6,10.93s9.42-.7,9.42-.7,6.74-8.14.93-15.11c0,0-1.75-3.49-15.58-2.91,0,0-15.47-10.58-51.51-11.28s-56.05,4.89-56.05,4.89" transform="translate(-567.07 -125.77)" fill="none" stroke="#000" stroke-miterlimit="10" stroke-width="3"/>
  <path id="goue" d="M1193.87,561.88s-2.17-29.39-83.77,21.86c0,0-34.74,20.23-49.57,25.63s23.6,92.39,47.2,100.82,33.72-10.12,33.72-10.12,39-56.7,43.39-79.66" transform="translate(-567.07 -125.77)" fill="none" stroke="#000" stroke-miterlimit="10" stroke-width="3"/>
  <path id="oeildroit" d="M1045,538.78s29.67-39.68,101.49-9c0,0,7.42,4.38,10.79-3s11.47-25.29,8.43-35.06-46.87-25-111.27,3.71c0,0-23.27,2.69-11.8-15.18,0,0,60.69-27.65,118.35-6.07,0,0,26.11,25.91,35.31,46.51,0,0-26.54-17.17-40-5.71,0,0-14.84,39.45-44.51,51.59S1045,538.78,1045,538.78s76.7,15,97.86.79c0,0-.08-8.77-30.76-11.47,0,0,5.72,11.17-3.71,17.56l-11.48-.38s-8.42-6.39-2.68-17.51l17.87.33s-46.87-2.59-67.1,10.68" transform="translate(-567.07 -125.77)" fill="none" stroke="#000" stroke-miterlimit="10" stroke-width="3"/>
  <path id="retinedroite" d="M1103.3,527.94s-.17,7.46,10.54,7.74" transform="translate(-567.07 -125.77)" fill="none" stroke="#000" stroke-miterlimit="10" stroke-width="3"/>
  <path id="retinefauche" d="M907.11,527.09s-2.81,8.82,7.15,8.71" transform="translate(-567.07 -125.77)" fill="none" stroke="#000" stroke-miterlimit="10" stroke-width="3"/>
  <path id="poin_entrer" d="M1138.5,769.3s-10,146.38,6.93,167.53,38.07,46.52,80.37,44.83-.69-32.39-48.14-12.81-110.06-10-192.11,27.19S567.64,894.53,567.64,894.53" transform="translate(-567.07 -125.77)" fill="none" stroke="#000" stroke-miterlimit="10" stroke-width="3"/>
</svg>
