<svg id="Calque_2" data-name="Calque 2" xmlns="http://www.w3.org/2000/svg" viewBox="0 0 1279.98 616.84">
  <title>ordinateur</title>
  <path d="M1854.31,782.77c-560.5-62.71-693.69-30.15-706.73,13.46-2.43,8.14-7.55,39.65,9.71,59.22,22.26,25.24,77.47,25.79,96,0,9.38-13.08,9.13-32.7,3.62-45.26-27-61.54-216-34-258.32-27.42A22.34,22.34,0,0,0,1013,759.68c-.63-5.54-4.53-11.51-14.43-17.27H956.75V692.27H1159.6s26.54,2.28,33.78-31.15V293.41s.41-24.31-30.74-32.67H611.08s-26.1,0-35.08,28.11V663.4s.89,25.83,28.24,28.87l5.32-34.19V293.41l549.28.76,1.52,363.91-265.9.76v6.84a4.61,4.61,0,0,1-.73,9.19,4.45,4.45,0,1,1-1-8.84V658.5l-281.62.68-5.65,33.08,205.69.34v50.2l-39.63.66s-35,13.89-1.33,39.31H998.54" transform="translate(-574.5 -259.24)" fill="none" stroke="#000" stroke-miterlimit="10" stroke-width="3"/>
</svg>
